# xmcd
#
# Track frame offsets: 
#        150
#        22942
#        43229
#        73633
#        90692
#        106618
#        122625
#        136142
#        153617
#        170342
#
# Disc length: 2518 seconds
#
# Revision: 0
# Processed by: cddbd v1.4PL0 Copyright (c) Steve Scherf et al.
# Submitted via: ExactAudioCopy v0.95a3
#
DISCID=7a09d40a
DTITLE=Midnight Rodeo - Get Some Work Done
DYEAR=1900
DGENRE=
TTITLE0=Get Some Work Done
TTITLE1=Cabin Fever
TTITLE2=Tribute To Jerry
TTITLE3=Keep On Walking
TTITLE4=Hear Them Talk
TTITLE5=Crying For Her Pain
TTITLE6=Turning My Mind
TTITLE7=Anges Gardiens
TTITLE8=Already Gone
TTITLE9=Sunshine Dance
EXTD=
EXTT0=
EXTT1=
EXTT2=
EXTT3=
EXTT4=
EXTT5=
EXTT6=
EXTT7=
EXTT8=
EXTT9=
PLAYORDER=
